<?xml version="1.0" encoding="UTF-8"?>
<svg version="1.1" xmlns="http://www.w3.org/2000/svg" width="350" height="330">
<path d="M0 0 C0.69895386 0.00141495 1.39790771 0.0028299 2.11804199 0.00428772 C4.31832429 0.00981955 6.51849923 0.02235848 8.71875 0.03515625 C10.22395685 0.04018009 11.72916532 0.04474143 13.234375 0.04882812 C16.89586735 0.05976648 20.55729817 0.07698266 24.21875 0.09765625 C24.54875 1.74765625 24.87875 3.39765625 25.21875 5.09765625 C24.36458496 5.10700195 23.51041992 5.11634766 22.63037109 5.12597656 C-9.0196133 5.55924705 -37.63457044 9.58499763 -65.78125 25.09765625 C-66.68875 25.58878906 -67.59625 26.07992187 -68.53125 26.5859375 C-99.89223902 44.4275258 -123.76555035 75.60002819 -133.40234375 110.33642578 C-139.63270003 134.27544996 -140.64644728 161.15748112 -133.78125 185.09765625 C-133.48371826 186.20173828 -133.48371826 186.20173828 -133.18017578 187.328125 C-126.67427861 211.05368797 -113.57666779 230.48994229 -96.78125 248.09765625 C-95.96785156 248.97550781 -95.15445313 249.85335937 -94.31640625 250.7578125 C-69.65372897 276.61964751 -31.02972751 290.08453439 4.07421875 291.22265625 C26.83217552 291.67267982 49.46603029 287.61025426 70.21875 278.09765625 C70.87182129 277.79988281 71.52489258 277.50210937 72.19775391 277.1953125 C80.98521567 273.14117843 88.84727573 268.5599101 96.546875 262.6875 C99.21875 261.09765625 99.21875 261.09765625 101.578125 261.3515625 C102.11953125 261.59777344 102.6609375 261.84398437 103.21875 262.09765625 C102.86627735 264.77057385 102.38980088 265.92774067 100.453125 267.8515625 C66.76799294 292.37391493 24.61130932 301.78998681 -16.43017578 295.49560547 C-57.30070852 288.5777479 -93.65643083 266.70063682 -117.90625 232.91015625 C-140.17204155 200.86080295 -149.49395065 161.73480807 -142.78125 123.09765625 C-137.16167216 93.60539051 -123.33976694 67.84898816 -102.78125 46.09765625 C-101.67910156 44.89882812 -101.67910156 44.89882812 -100.5546875 43.67578125 C-75.39179346 17.25053467 -36.57824766 -0.14749293 0 0 Z " fill="#B3C3DF" transform="translate(177.78125,21.90234375)"/>
<path d="M0 0 C1.63899947 1.52677498 3.26407164 3.06863535 4.875 4.625 C5.67421875 5.38683594 6.4734375 6.14867187 7.296875 6.93359375 C30.60410893 30.72330227 38.30181173 62.3108604 38.02734375 94.5703125 C37.9064466 101.11074841 37.3517363 107.23429636 35.875 113.625 C35.63007813 114.77097656 35.38515625 115.91695312 35.1328125 117.09765625 C31.54592324 132.1911593 25.15928795 146.18505067 15.875 158.625 C15.46910645 159.1813916 15.06321289 159.7377832 14.64501953 160.31103516 C-4.53550385 186.49385726 -32.44203111 203.21349893 -64.37890625 209.0625 C-76.0872811 210.82058757 -87.38892164 210.62742456 -99.125 209.625 C-99.455 207.975 -99.785 206.325 -100.125 204.625 C-97.42326909 203.27413454 -95.38845897 203.56351097 -92.3671875 203.6328125 C-73.04997628 203.9687991 -73.04997628 203.9687991 -54.125 200.625 C-53.12597656 200.35816406 -52.12695312 200.09132813 -51.09765625 199.81640625 C-25.99601212 192.23537279 -2.25766421 175.92858356 11.875 153.625 C12.23255371 153.08858887 12.59010742 152.55217773 12.95849609 151.99951172 C29.61667103 126.9874287 36.00563649 95.46827038 30.35766602 65.88232422 C27.69938539 53.43962255 23.60322178 41.46115618 16.875 30.625 C16.34132813 29.72652344 15.80765625 28.82804687 15.2578125 27.90234375 C-0.37171981 2.29728045 -25.00928559 -15.24496238 -54.125 -22.375 C-62.73448443 -24.41564431 -71.05218102 -24.64828995 -79.875 -24.5625 C-81.14988281 -24.56185547 -82.42476562 -24.56121094 -83.73828125 -24.56054688 C-88.56137954 -24.53791503 -93.19942523 -24.51266312 -97.97753906 -23.80200195 C-99.01620117 -23.66109131 -100.05486328 -23.52018066 -101.125 -23.375 C-102.125 -24.375 -102.125 -24.375 -102.1875 -26.9375 C-102.166875 -27.741875 -102.14625 -28.54625 -102.125 -29.375 C-63.93748786 -34.95554223 -29.28007319 -25.58009514 0 0 Z " fill="#A9CC93" transform="translate(284.125,78.375)"/>
<path d="M0 0 C2.68722271 2.38776681 4.08156849 4.86444155 5.6875 8.0625 C9.90616813 15.98562049 15.41595896 22.89771806 22 29 C22.60972656 29.59167969 23.21945313 30.18335938 23.84765625 30.79296875 C40.54518595 46.46016086 62.33935794 54.63296749 85.125 54.5 C86.29716064 54.49355469 87.46932129 54.48710937 88.67700195 54.48046875 C109.93802615 54.03834881 128.50576212 46.27650951 145 33 C145.70382813 32.45988281 146.40765625 31.91976562 147.1328125 31.36328125 C156.12768868 24.07919524 162.36885826 13.98147476 168 4 C169.65 4.33 171.3 4.66 173 5 C167.82148219 18.55483002 157.61137219 31.30124474 146 40 C144.94554687 40.79019531 143.89109375 41.58039063 142.8046875 42.39453125 C133.51148878 49.0865448 123.87741185 53.49627987 113 57 C111.89785156 57.3609375 110.79570312 57.721875 109.66015625 58.09375 C93.93979887 62.29102712 74.49504467 61.89007113 59 57 C57.27330078 56.47212891 57.27330078 56.47212891 55.51171875 55.93359375 C42.82763111 51.73328932 32.11987721 45.67675746 22 37 C21.41089844 36.55527344 20.82179688 36.11054688 20.21484375 35.65234375 C10.58134419 28.20517033 1.99425267 16.0112192 -3 5 C-3 3.68 -3 2.36 -3 1 C-2.01 0.67 -1.02 0.34 0 0 Z " fill="#AAB2C3" transform="translate(99,199)"/>
<path d="M0 0 C7.68908038 0.12856062 13.15290035 1.6670288 19.03662109 6.77392578 C23.30893084 11.32026123 25.53552864 17.21318681 25.81396484 23.38720703 C25.45340883 30.75697193 22.72045886 35.92897734 17.33740234 40.91455078 C10.9118914 45.89894918 3.5768298 46.55780163 -4.31103516 46.51220703 C-4.99552734 46.51607422 -5.68001953 46.51994141 -6.38525391 46.52392578 C-11.43431455 46.51392764 -11.43431455 46.51392764 -12.56103516 45.38720703 C-12.65898827 44.01110821 -12.68901604 42.63006821 -12.69042969 41.25048828 C-12.69358185 40.37287842 -12.69673401 39.49526855 -12.69998169 38.59106445 C-12.69795746 37.6369165 -12.69593323 36.68276855 -12.69384766 35.69970703 C-12.69480438 34.72686768 -12.69576111 33.75402832 -12.69674683 32.75170898 C-12.69742874 30.69042903 -12.69557368 28.62914695 -12.69140625 26.56787109 C-12.68605816 23.40083015 -12.69135088 20.23393103 -12.69775391 17.06689453 C-12.69709313 15.06949838 -12.69581197 13.07210232 -12.69384766 11.07470703 C-12.69587189 10.12055908 -12.69789612 9.16641113 -12.69998169 8.18334961 C-12.69682953 7.30573975 -12.69367737 6.42812988 -12.69042969 5.52392578 C-12.68963409 4.74750732 -12.6888385 3.97108887 -12.6880188 3.17114258 C-12.33329796 -1.81216945 -3.81396172 0.01774596 0 0 Z M-4.56103516 7.38720703 C-4.56103516 17.61720703 -4.56103516 27.84720703 -4.56103516 38.38720703 C5.12567478 38.688384 5.12567478 38.688384 12.94677734 33.95751953 C17.08021424 29.20997202 17.85895287 25.58203039 17.43896484 19.38720703 C15.81525221 15.24673982 14.00336545 12.08459127 10.43896484 9.38720703 C5.28166024 7.40536072 1.07807574 7.38720703 -4.56103516 7.38720703 Z " fill="#274881" transform="translate(154.56103515625,131.61279296875)"/>
<path d="M0 0 C2.43926784 2.16903876 4.80819155 4.38502925 7.14453125 6.6640625 C8.01078125 7.4890625 8.87703125 8.3140625 9.76953125 9.1640625 C10.94515625 10.4015625 10.94515625 10.4015625 12.14453125 11.6640625 C13.03205078 12.55931641 13.03205078 12.55931641 13.9375 13.47265625 C18.19457208 17.96028543 21.55828669 22.6433822 24.64453125 27.9765625 C24.99491455 28.57525146 25.34529785 29.17394043 25.70629883 29.79077148 C27.55955384 33.11038944 28.14453125 34.75870155 28.14453125 38.6640625 C26.82453125 38.6640625 25.50453125 38.6640625 24.14453125 38.6640625 C23.46970703 37.26607422 23.46970703 37.26607422 22.78125 35.83984375 C11.71599571 13.62426296 -6.27960373 -2.71826742 -29.98046875 -10.7109375 C-55.46021644 -18.82175149 -80.62427967 -16.26131113 -104.515625 -4.58984375 C-121.31572228 4.35904528 -134.45953555 18.64171951 -142.85546875 35.6640625 C-144.17546875 35.3340625 -145.49546875 35.0040625 -146.85546875 34.6640625 C-145.45433708 29.54993189 -143.21120459 25.92005053 -140.10546875 21.7265625 C-139.65445801 21.109021 -139.20344727 20.49147949 -138.73876953 19.85522461 C-124.34998277 0.30765739 -105.36455461 -12.1540287 -81.85546875 -18.3359375 C-81.01113281 -18.5628125 -80.16679687 -18.7896875 -79.296875 -19.0234375 C-52.41998816 -25.06130287 -21.17731161 -17.32425765 0 0 Z " fill="#F8E6A0" transform="translate(242.85546875,92.3359375)"/>
<path d="M0 0 C0.66 0 1.32 0 2 0 C4.6765712 5.70746066 7.3449613 11.41869382 10.0078125 17.13256836 C10.91382862 19.07419327 11.82168458 21.01496081 12.73144531 22.95483398 C14.04201109 25.75018189 15.34583606 28.54858982 16.6484375 31.34765625 C17.25635635 32.63870018 17.25635635 32.63870018 17.8765564 33.95582581 C20.02275384 38.58594964 21.75546924 43.04816986 23 48 C19.8125 48.5 19.8125 48.5 16 48 C13.04932999 44.79534827 11.36630118 41.09890353 10 37 C4.06 36.67 -1.88 36.34 -8 36 C-8.495 38.475 -8.495 38.475 -9 41 C-10.17982499 43.44967679 -11.58426557 45.67088852 -13 48 C-14.98 48 -16.96 48 -19 48 C-20.14486087 44.5654174 -19.92814632 44.19599779 -18.49291992 41.06689453 C-18.13892624 40.2824295 -17.78493256 39.49796448 -17.42021179 38.68972778 C-17.02759659 37.84594574 -16.63498138 37.0021637 -16.23046875 36.1328125 C-15.83426834 35.26107391 -15.43806793 34.38933533 -15.02986145 33.49118042 C-13.75818355 30.69818885 -12.47321408 27.91155417 -11.1875 25.125 C-9.91547724 22.34429909 -8.64615233 19.56237964 -7.37727356 16.78024292 C-6.58620238 15.04841659 -5.79274869 13.31767607 -4.99662781 11.58816528 C-3.2362153 7.75798336 -1.50959667 3.93820828 0 0 Z M1 17 C-0.98 21.29 -2.96 25.58 -5 30 C-1.04 30 2.92 30 7 30 C5.58192622 25.52761347 3.88695626 21.28853694 2 17 C1.67 17 1.34 17 1 17 Z " fill="#284D87" transform="translate(244,130)"/>
<path d="M0 0 C0.66 0 1.32 0 2 0 C5.07617188 6.76757812 8.15234375 13.53515625 11.22851562 20.30273438 C11.56070099 21.03321991 11.89288635 21.76370544 12.23513794 22.5163269 C12.89682544 23.97268862 13.55753687 25.42949422 14.21725464 26.88674927 C15.65742221 30.06533155 17.11077376 33.23399059 18.60400391 36.38818359 C19.06081543 37.3570752 19.51762695 38.3259668 19.98828125 39.32421875 C20.38184814 40.14365967 20.77541504 40.96310059 21.1809082 41.80737305 C22 44 22 44 22 48 C19.69 48 17.38 48 15 48 C14.16180842 46.37750059 13.3295884 44.75191503 12.5 43.125 C12.0359375 42.22007812 11.571875 41.31515625 11.09375 40.3828125 C10 38 10 38 10 36 C4.06 36 -1.88 36 -8 36 C-8.66 37.98 -9.32 39.96 -10 42 C-10.97004121 44.01470098 -11.96244882 46.01922047 -13 48 C-15.31 48 -17.62 48 -20 48 C-19.41282513 42.78920467 -17.71172626 38.68665225 -15.5078125 34.00390625 C-15.16120575 33.25213608 -14.814599 32.50036591 -14.45748901 31.72581482 C-13.35344742 29.33483083 -12.23955716 26.9485976 -11.125 24.5625 C-10.01979631 22.17899716 -8.91662764 19.79456196 -7.81393433 17.40989685 C-7.12912473 15.93085892 -6.44248843 14.45266487 -5.75369263 12.97547913 C-3.75530705 8.68182402 -1.84449937 4.36208795 0 0 Z M0 17 C-1.65 21.29 -3.3 25.58 -5 30 C-1.04 30 2.92 30 7 30 C6.21658881 28.01755108 5.42302514 26.03911141 4.625 24.0625 C4.18414062 22.96035156 3.74328125 21.85820312 3.2890625 20.72265625 C2.28958568 17.88769814 2.28958568 17.88769814 0 17 Z " fill="#2D5094" transform="translate(116,130)"/>
<path d="M0 0 C0 3 0 3 -1.42578125 4.4296875 C-2.04839844 4.90664062 -2.67101562 5.38359375 -3.3125 5.875 C-6.35855934 8.36058442 -8.0981389 10.52703625 -10 14 C-10.89030542 15.10862872 -11.78698995 16.21214413 -12.6875 17.3125 C-17.47462171 23.60380459 -20.66589185 30.87054344 -24 38 C-24.42667969 38.90105469 -24.85335937 39.80210937 -25.29296875 40.73046875 C-30.34983393 52.29732128 -31.26725407 63.97746691 -31.3125 76.4375 C-31.31797852 77.55125 -31.32345703 78.665 -31.32910156 79.8125 C-31.27591026 85.90932381 -30.71578133 91.15460047 -29 97 C-28.73756234 98.51873648 -28.48562188 100.03937284 -28.25 101.5625 C-25.2283331 116.64776834 -17.21317718 131.56328079 -7 143 C-6.34 143.33 -5.68 143.66 -5 144 C-5 145.32 -5 146.64 -5 148 C-7.3125 147.8125 -7.3125 147.8125 -10 147 C-11.06103237 145.37150742 -12.04898076 143.69509297 -13 142 C-14.03478104 140.44782844 -15.06976507 138.89578784 -16.10839844 137.34619141 C-32.83178291 112.13236324 -39.26195193 84.69056865 -33.58007812 54.69824219 C-30.64054057 41.02493873 -16.77094807 0 0 0 Z " fill="#A9C879" transform="translate(100,91)"/>
<path d="M0 0 C2.31 0 4.62 0 7 0 C7 12.54 7 25.08 7 38 C11.62 38 16.24 38 21 38 C21 40.64 21 43.28 21 46 C14.07 46 7.14 46 0 46 C0 30.82 0 15.64 0 0 Z " fill="#274782" transform="translate(202,132)"/>
<path d="M0 0 C2.64 0 5.28 0 8 0 C8.02527062 6.39037231 8.04283317 12.78073183 8.05493164 19.17114258 C8.05997308 21.34692873 8.06680607 23.52271147 8.07543945 25.69848633 C8.08751338 28.81853067 8.09323005 31.93853038 8.09765625 35.05859375 C8.10281754 36.03775253 8.10797882 37.01691132 8.11329651 38.02574158 C8.11337204 38.92659988 8.11344757 39.82745819 8.11352539 40.75561523 C8.115746 41.55281479 8.11796661 42.35001434 8.12025452 43.17137146 C8 45 8 45 7 46 C4 46.125 4 46.125 1 46 C0 45 0 45 -0.12025452 43.17137146 C-0.11803391 42.37417191 -0.11581329 41.57697235 -0.11352539 40.75561523 C-0.11344986 39.85475693 -0.11337433 38.95389862 -0.11329651 38.02574158 C-0.10813522 37.04658279 -0.10297394 36.06742401 -0.09765625 35.05859375 C-0.0962413 34.06118668 -0.09482635 33.0637796 -0.09336853 32.03614807 C-0.08775114 28.83656876 -0.07519571 25.63705831 -0.0625 22.4375 C-0.05748724 20.27408955 -0.05292395 18.11067801 -0.04882812 15.94726562 C-0.03777607 10.63148675 -0.02102104 5.31574829 0 0 Z " fill="#2E5294" transform="translate(185,132)"/>
<path d="M0 0 C2.125 0.375 2.125 0.375 4 1 C4 5.03372932 2.66242791 5.83285116 -0.125 8.6875 C-8.55179374 16.86363841 -18.928383 22.20610159 -30 26 C-31.28197266 26.4640625 -31.28197266 26.4640625 -32.58984375 26.9375 C-37.87473621 28.7176743 -41.55489433 29.30209049 -47 28 C-47 26.35 -47 24.7 -47 23 C-45.22109375 22.70609375 -45.22109375 22.70609375 -43.40625 22.40625 C-26.95663902 19.461556 -13.8009075 14.20608887 -2 2 C-1.34 1.34 -0.68 0.68 0 0 Z " fill="#AB2C1B" transform="translate(240,205)"/>
<path d="M0 0 C0.99 0.33 1.98 0.66 3 1 C3.33 11.23 3.66 21.46 4 32 C5.65 31.34 7.3 30.68 9 30 C10.5778125 30.12375 10.5778125 30.12375 12.1875 30.25 C17.73791633 29.88603827 21.73217327 27.50261565 26 24 C27.72843114 20.84484034 27.72843114 20.84484034 28 18 C29.32 18 30.64 18 32 18 C31.70831123 22.23419186 31.22572358 25.74534304 28.1796875 28.86328125 C20.7299459 34.09367474 12.97248169 35.60830384 4 35 C1.76953125 33.984375 1.76953125 33.984375 0 33 C-0.16750929 28.62196815 -0.32807935 24.24375401 -0.48217773 19.86523438 C-0.53560003 18.37525558 -0.59092962 16.88534391 -0.64819336 15.39550781 C-0.73009836 13.25600663 -0.80517709 11.11635907 -0.87890625 8.9765625 C-0.9260376 7.68830566 -0.97316895 6.40004883 -1.02172852 5.07275391 C-1 2 -1 2 0 0 Z " fill="#2E5398" transform="translate(145,141)"/>
<path d="M0 0 C2.20766726 2.7729729 3.81040647 5.46521235 5.26171875 8.6953125 C5.65810547 9.57574219 6.05449219 10.45617187 6.46289062 11.36328125 C6.86701172 12.27464844 7.27113281 13.18601563 7.6875 14.125 C8.10322266 15.04410156 8.51894531 15.96320313 8.94726562 16.91015625 C12 23.73745382 12 23.73745382 12 26 C8.8125 26.5 8.8125 26.5 5 26 C2.04932999 22.79534827 0.36630118 19.09890353 -1 15 C-6.94 14.67 -12.88 14.34 -19 14 C-19.33 15.65 -19.66 17.3 -20 19 C-21.17982499 21.44967679 -22.58426557 23.67088852 -24 26 C-25.98 26 -27.96 26 -30 26 C-31.36420006 21.90739982 -29.7664515 19.52987341 -28.0625 15.8125 C-27.77181641 15.15830078 -27.48113281 14.50410156 -27.18164062 13.83007812 C-26.46304657 12.21618656 -25.7326412 10.60756345 -25 9 C-24.01 10.485 -24.01 10.485 -23 12 C-24.3125 15.5 -24.3125 15.5 -26 19 C-26.33 19.99 -26.66 20.98 -27 22 C-26.01 22.33 -25.02 22.66 -24 23 C-23.01 19.535 -23.01 19.535 -22 16 C-21.34 16 -20.68 16 -20 16 C-20 14.35 -20 12.7 -20 11 C-16.89614789 10.88386796 -13.79285338 10.81277971 -10.6875 10.75 C-9.80642578 10.71648437 -8.92535156 10.68296875 -8.01757812 10.6484375 C-1.50187213 10.54933931 -1.50187213 10.54933931 1.10546875 12.890625 C2 15 2 15 2 17 C2.66 17.33 3.32 17.66 4 18 C4.625 20.5625 4.625 20.5625 5 23 C5.99 23 6.98 23 8 23 C7.59603101 19.42859318 7.59603101 19.42859318 5.55859375 16.62109375 C3.65841576 14.64471814 3.14981784 12.98894589 2.375 10.375 C1.63985856 7.42560369 1.63985856 7.42560369 0 5 C-0.04063832 3.33382885 -0.042721 1.66611905 0 0 Z " fill="#2C4A82" transform="translate(255,152)"/>
<path d="M0 0 C2.64 0 5.28 0 8 0 C8.02527062 6.39037231 8.04283317 12.78073183 8.05493164 19.17114258 C8.05997308 21.34692873 8.06680607 23.52271147 8.07543945 25.69848633 C8.08751338 28.81853067 8.09323005 31.93853038 8.09765625 35.05859375 C8.10281754 36.03775253 8.10797882 37.01691132 8.11329651 38.02574158 C8.11337204 38.92659988 8.11344757 39.82745819 8.11352539 40.75561523 C8.115746 41.55281479 8.11796661 42.35001434 8.12025452 43.17137146 C8 45 8 45 7 46 C4 46.125 4 46.125 1 46 C0 45 0 45 -0.12025452 43.17137146 C-0.11803391 42.37417191 -0.11581329 41.57697235 -0.11352539 40.75561523 C-0.11344986 39.85475693 -0.11337433 38.95389862 -0.11329651 38.02574158 C-0.10813522 37.04658279 -0.10297394 36.06742401 -0.09765625 35.05859375 C-0.0962413 34.06118668 -0.09482635 33.0637796 -0.09336853 32.03614807 C-0.08775114 28.83656876 -0.07519571 25.63705831 -0.0625 22.4375 C-0.05748724 20.27408955 -0.05292395 18.11067801 -0.04882812 15.94726562 C-0.03777607 10.63148675 -0.02102104 5.31574829 0 0 Z M2 2 C0.81071605 6.2311014 0.87455642 10.33924052 0.90234375 14.703125 C0.9037587 15.54091492 0.90517365 16.37870483 0.90663147 17.24188232 C0.91221803 19.91129157 0.92476806 22.5806162 0.9375 25.25 C0.94251674 27.06249879 0.94707934 28.87499889 0.95117188 30.6875 C0.96218306 35.12503248 0.97943845 39.56250191 1 44 C1.99 44.33 2.98 44.66 4 45 C4.99 44.505 4.99 44.505 6 44 C6.0247366 38.66146176 6.0428774 33.32295697 6.05493164 27.984375 C6.05995741 26.16861388 6.06677903 24.3528568 6.07543945 22.53710938 C6.08758189 19.9257711 6.09324591 17.31448638 6.09765625 14.703125 C6.10281754 13.89256653 6.10797882 13.08200806 6.11329651 12.24688721 C6.11365296 8.6579583 5.97045947 5.45259214 5 2 C4.01 2 3.02 2 2 2 Z " fill="#2F4A7B" transform="translate(185,132)"/>
<path d="M0 0 C1.32 0.33 2.64 0.66 4 1 C4.33 12.88 4.66 24.76 5 37 C11.05089561 37.87305412 11.05089561 37.87305412 17 38 C17.33 38.99 17.66 39.98 18 41 C16.29278846 41.19745329 14.58413679 41.38247093 12.875 41.5625 C11.44800781 41.71912109 11.44800781 41.71912109 9.9921875 41.87890625 C7 42 7 42 1 41 C0.67 27.47 0.34 13.94 0 0 Z " fill="#2E5398" transform="translate(203,134)"/>
<path d="M0 0 C0.33 0 0.66 0 1 0 C1.33 2.31 1.66 4.62 2 7 C2.66 7 3.32 7 4 7 C4.33 6.01 4.66 5.02 5 4 C5.33 15.55 5.66 27.1 6 39 C3.89172945 35.83759418 3.66182535 34.49342531 3.375 30.8125 C3.30023438 29.91144531 3.22546875 29.01039063 3.1484375 28.08203125 C3.09945312 27.39496094 3.05046875 26.70789063 3 26 C1.33657163 27.66342837 1.63951903 29.7825709 1.4375 32.0625 C1.35371094 32.98160156 1.26992188 33.90070313 1.18359375 34.84765625 C1.12300781 35.55792969 1.06242187 36.26820313 1 37 C0.67 37 0.34 37 0 37 C-1.28707472 24.65787279 -1.62411555 12.32587695 0 0 Z " fill="#ACBCDA" transform="translate(34,152)"/>
<path d="M0 0 C4.52422546 3.91284364 6.22228841 7.35551461 8 13 C8.27972656 13.80695313 8.55945313 14.61390625 8.84765625 15.4453125 C11 21.67209302 11 21.67209302 11 24 C11.99 24.33 12.98 24.66 14 25 C14 26.65 14 28.3 14 30 C13.01 30 12.02 30 11 30 C10.66226562 29.28972656 10.32453125 28.57945312 9.9765625 27.84765625 C9.53054688 26.92855469 9.08453125 26.00945312 8.625 25.0625 C8.18414062 24.14597656 7.74328125 23.22945312 7.2890625 22.28515625 C6.20800838 19.87096198 6.20800838 19.87096198 4 19 C1.11629667 18.92805131 -1.74239664 18.90708292 -4.625 18.9375 C-5.42679688 18.94201172 -6.22859375 18.94652344 -7.0546875 18.95117188 C-9.03649006 18.96296832 -11.01825433 18.98090395 -13 19 C-12.67 18.34 -12.34 17.68 -12 17 C-11.19175781 17.01160156 -10.38351563 17.02320313 -9.55078125 17.03515625 C-8.48214844 17.04417969 -7.41351563 17.05320313 -6.3125 17.0625 C-5.25675781 17.07410156 -4.20101562 17.08570313 -3.11328125 17.09765625 C-0.27589738 17.00865425 2.2438919 16.64939838 5 16 C4.67 14.68 4.34 13.36 4 12 C3.34 12 2.68 12 2 12 C2 11.01 2 10.02 2 9 C1.34 8.67 0.68 8.34 0 8 C0 6.68 0 5.36 0 4 C-0.66 3.67 -1.32 3.34 -2 3 C-1.34 2.01 -0.68 1.02 0 0 Z " fill="#2E5399" transform="translate(249,145)"/>
<path d="M0 0 C0.66 0 1.32 0 2 0 C3.86683206 4.11938425 5.71629424 8.24633524 7.5625 12.375 C8.09552734 13.550625 8.62855469 14.72625 9.17773438 15.9375 C9.67724609 17.05898437 10.17675781 18.18046875 10.69140625 19.3359375 C11.39052124 20.89127197 11.39052124 20.89127197 12.10375977 22.47802734 C12.39951904 23.31027832 12.69527832 24.1425293 13 25 C12.67 25.66 12.34 26.32 12 27 C8.9199188 22.42248802 6.49246741 18.04996271 4.69140625 12.83203125 C3.75840584 10.35984371 2.44596938 8.20338191 1 6 C-2.70064549 12.09425449 -5.32965998 18.29865805 -7.8046875 24.9765625 C-9.23056733 28.58319973 -10.99806737 31.68645634 -13 35 C-13.70286303 36.65172812 -14.38655243 38.31301918 -15 40 C-15.66 40 -16.32 40 -17 40 C-14.38574295 31.3020072 -10.58594866 23.17552234 -6.8125 14.9375 C-6.15127953 13.48521409 -5.49046882 12.03274154 -4.83007812 10.58007812 C-3.22476912 7.05121549 -1.61393292 3.52492629 0 0 Z " fill="#26447B" transform="translate(116,130)"/>
<path d="M0 0 C0 0.66 0 1.32 0 2 C0.66 2 1.32 2 2 2 C2 2.99 2 3.98 2 5 C2.99 5 3.98 5 5 5 C6.97094808 9.92737019 7.1799928 13.78020872 7 19 C4.69 18.67 2.38 18.34 0 18 C0.01160156 17.39671875 0.02320313 16.7934375 0.03515625 16.171875 C0.04417969 15.37265625 0.05320313 14.5734375 0.0625 13.75 C0.07410156 12.96109375 0.08570313 12.1721875 0.09765625 11.359375 C0.00385306 9.09308998 -0.36758937 7.1711105 -1 5 C-1.99 5 -2.98 5 -4 5 C-4.66 3.35 -5.32 1.7 -6 0 C-3.50907189 -1.24546405 -2.58919267 -0.7767578 0 0 Z " fill="#2D5192" transform="translate(173,140)"/>
<path d="M0 0 C0.99 0 1.98 0 3 0 C1.19499838 9.93812655 1.19499838 9.93812655 -2 13 C-2.66 13 -3.32 13 -4 13 C-3.67 13.99 -3.34 14.98 -3 16 C-3.4375 18.6875 -3.4375 18.6875 -4 21 C-4.66 21 -5.32 21 -6 21 C-6.144375 21.78375 -6.28875 22.5675 -6.4375 23.375 C-7 26 -7 26 -8 28 C-9.32 27.67 -10.64 27.34 -12 27 C-10.25192871 21.53262809 -8.34205919 16.24175152 -6 11 C-5.34 11 -4.68 11 -4 11 C-3.34 8.03 -2.68 5.06 -2 2 C-1.34 2 -0.68 2 0 2 C0 1.34 0 0.68 0 0 Z " fill="#2D5196" transform="translate(239,147)"/>
<path d="M0 0 C0.66 0 1.32 0 2 0 C3.5094588 3.09965403 5.00590667 6.20541403 6.5 9.3125 C6.92925781 10.19357422 7.35851562 11.07464844 7.80078125 11.98242188 C8.40986328 13.25375977 8.40986328 13.25375977 9.03125 14.55078125 C9.40830078 15.33106689 9.78535156 16.11135254 10.17382812 16.9152832 C11 19 11 19 11 22 C7.59209022 20.29604511 6.26150672 18.65332951 4.83203125 15.08203125 C4.49558594 14.00308594 4.15914062 12.92414063 3.8125 11.8125 C3.46832031 10.72582031 3.12414062 9.63914063 2.76953125 8.51953125 C2.51558594 7.68808594 2.26164063 6.85664063 2 6 C-1.69749741 10.07999715 -3.2589664 13.86395088 -5 19 C-5.66 19 -6.32 19 -7 19 C-7.144375 19.928125 -7.28875 20.85625 -7.4375 21.8125 C-8 25 -8 25 -9 28 C-9.66 28 -10.32 28 -11 28 C-11.33 28.99 -11.66 29.98 -12 31 C-12.33 30.34 -12.66 29.68 -13 29 C-12.16059029 26.75410931 -11.260756 24.63104832 -10.25390625 22.4609375 C-9.96394272 21.82008209 -9.67397919 21.17922668 -9.37522888 20.51895142 C-8.44499104 18.46753752 -7.50390746 16.42130865 -6.5625 14.375 C-5.93092144 12.98730626 -5.30005272 11.59928922 -4.66992188 10.2109375 C-3.12150117 6.80348186 -1.56333384 3.40063775 0 0 Z " fill="#29487D" transform="translate(244,130)"/>
<path d="M0 0 C13.01602995 3.62741818 22.5717479 11.5717479 32 21 C32 21.99 32 22.98 32 24 C28.53993956 22.53908559 26.61486962 20.65551588 24.125 17.875 C17.46617384 11.0281339 8.91591162 6.33508724 0 3 C0 2.01 0 1.02 0 0 Z " fill="#983724" transform="translate(237,74)"/>
<path d="M0 0 C0.33 0 0.66 0 1 0 C1.33 7.59 1.66 15.18 2 23 C16.3325596 23.48082439 16.3325596 23.48082439 29.125 17.8125 C29.74375 17.214375 30.3625 16.61625 31 16 C31.66 16.33 32.32 16.66 33 17 C26.23946614 23.91723498 19.6291387 26.08010185 9.99609375 26.24658203 C6.98657427 26.25157886 4.00318493 26.20150402 1 26 C0 25 0 25 -0.11352539 22.59155273 C-0.10828857 21.54942627 -0.10305176 20.5072998 -0.09765625 19.43359375 C-0.09443359 18.30888672 -0.09121094 17.18417969 -0.08789062 16.02539062 C-0.07951172 14.84138672 -0.07113281 13.65738281 -0.0625 12.4375 C-0.05798828 11.24962891 -0.05347656 10.06175781 -0.04882812 8.83789062 C-0.03699675 5.89187774 -0.02051287 2.94596319 0 0 Z " fill="#28457F" transform="translate(142,152)"/>
<path d="M0 0 C0 0.33 0 0.66 0 1 C-2.31 1.66 -4.62 2.32 -7 3 C-7 3.99 -7 4.98 -7 6 C-13.6 6 -20.2 6 -27 6 C-27 5.67 -27 5.34 -27 5 C-25.02 4.34 -23.04 3.68 -21 3 C-21.99 2.34 -22.98 1.68 -24 1 C-15.98866917 0.40891367 -8.03770278 -0.14101233 0 0 Z " fill="#ABBDD8" transform="translate(204,313)"/>
<path d="M0 0 C0 3 0 3 -1.42578125 4.4296875 C-2.04839844 4.90664062 -2.67101562 5.38359375 -3.3125 5.875 C-6.35855934 8.36058442 -8.0981389 10.52703625 -10 14 C-13.17866731 18.45013424 -16.55190043 22.75618514 -20 27 C-20.73828125 25.3828125 -20.73828125 25.3828125 -21 23 C-17.7964425 16.92229965 -7.44005567 0 0 0 Z " fill="#A1C172" transform="translate(100,91)"/>
<path d="M0 0 C1.32 0 2.64 0 4 0 C4.6987693 1.76641683 5.38366583 3.53832664 6.0625 5.3125 C6.44535156 6.29863281 6.82820313 7.28476563 7.22265625 8.30078125 C8 11 8 11 7 14 C5.35 10.37 3.7 6.74 2 3 C0.35 6.63 -1.3 10.26 -3 14 C-0.42838542 14.1953125 2.14322917 14.390625 4.71484375 14.5859375 C5.84599609 14.79089844 5.84599609 14.79089844 7 15 C7.33 15.66 7.66 16.32 8 17 C3.38 17 -1.24 17 -6 17 C-5.52541798 12.1592634 -4.66233226 9.04674504 -2 5 C-1.30177383 3.34630643 -0.62501395 1.68272986 0 0 Z " fill="#264781" transform="translate(115,145)"/>
<path d="M0 0 C8.21867115 -0.51129982 16.11450131 0.60912557 24 3 C24.33 3.66 24.66 4.32 25 5 C19.72 4.34 14.44 3.68 9 3 C12.3 3.99 15.6 4.98 19 6 C19 6.33 19 6.66 19 7 C10.75 6.34 2.5 5.68 -6 5 C0.37037037 1.81481481 0.37037037 1.81481481 4.1875 2.9375 C5.5796875 3.4634375 5.5796875 3.4634375 7 4 C7 3.34 7 2.68 7 2 C4.69 1.67 2.38 1.34 0 1 C0 0.67 0 0.34 0 0 Z " fill="#AFCF9D" transform="translate(210,48)"/>
<path d="M0 0 C1.12148437 0.04833984 2.24296875 0.09667969 3.3984375 0.14648438 C5.161875 0.2305957 5.161875 0.2305957 6.9609375 0.31640625 C8.73597656 0.3947168 8.73597656 0.3947168 10.546875 0.47460938 C13.47681311 0.60456631 16.40643423 0.73954153 19.3359375 0.87890625 C19.3359375 1.53890625 19.3359375 2.19890625 19.3359375 2.87890625 C17.7271875 3.09546875 17.7271875 3.09546875 16.0859375 3.31640625 C12.60551737 3.76373838 12.60551737 3.76373838 10.34472656 4.42163086 C6.95100882 5.19416773 3.52716657 4.70588234 0.0859375 4.44140625 C-0.65914062 4.38919922 -1.40421875 4.33699219 -2.171875 4.28320312 C-4.00301111 4.15408455 -5.83360063 4.01725511 -7.6640625 3.87890625 C-7.6640625 2.88890625 -7.6640625 1.89890625 -7.6640625 0.87890625 C-4.96635992 -0.46994504 -3.01132875 -0.13687858 0 0 Z " fill="#A5CF8C" transform="translate(192.6640625,284.12109375)"/>
<path d="M0 0 C0 0.99 0 1.98 0 3 C0.99 3 1.98 3 3 3 C3 3.99 3 4.98 3 6 C-1 6 -1 6 -2.953125 5.50390625 C-5.28652627 4.92946204 -7.35063672 4.90221525 -9.75 4.9375 C-10.94882813 4.95103516 -10.94882813 4.95103516 -12.171875 4.96484375 C-13.07679688 4.98224609 -13.07679688 4.98224609 -14 5 C-14 5.99 -14 6.98 -14 8 C-14.99 7.67 -15.98 7.34 -17 7 C-16.67 5.02 -16.34 3.04 -16 1 C-13.70839646 0.83246763 -11.41671509 0.66599948 -9.125 0.5 C-7.84882813 0.4071875 -6.57265625 0.314375 -5.2578125 0.21875 C-3.50763316 0.10123196 -1.75412035 0 0 0 Z " fill="#2E5399" transform="translate(162,133)"/>
<path d="M0 0 C10.56 0 21.12 0 32 0 C32.495 2.475 32.495 2.475 33 5 C23.76 5 14.52 5 5 5 C5 4.67 5 4.34 5 4 C13.58 4 22.16 4 31 4 C31 3.34 31 2.68 31 2 C20.77 2 10.54 2 0 2 C0 1.34 0 0.68 0 0 Z " fill="#A7B9D3" transform="translate(170,22)"/>
<path d="M0 0 C1.65 0.33 3.3 0.66 5 1 C3.63649571 4.64475185 1.998536 7.91244487 0 11.25 C-0.515625 12.12140625 -1.03125 12.9928125 -1.5625 13.890625 C-3 16 -3 16 -5 17 C-4.34 15.02 -3.68 13.04 -3 11 C-3.33 11 -3.66 11 -4 11 C-5 8 -5 8 -4.00390625 5.95703125 C-3.52824219 5.24933594 -3.05257813 4.54164063 -2.5625 3.8125 C-2.08941406 3.09707031 -1.61632812 2.38164062 -1.12890625 1.64453125 C-0.75636719 1.10183594 -0.38382812 0.55914062 0 0 Z " fill="#A5AEBE" transform="translate(267,203)"/>
<path d="M0 0 C0.85851562 0.36931641 0.85851562 0.36931641 1.734375 0.74609375 C1.734375 3.74609375 1.734375 3.74609375 -0.453125 6.2265625 C-1.38125 7.11988281 -2.309375 8.01320312 -3.265625 8.93359375 C-4.19375 9.83464844 -5.121875 10.73570312 -6.078125 11.6640625 C-6.8 12.35113281 -7.521875 13.03820312 -8.265625 13.74609375 C-9.255625 13.41609375 -10.245625 13.08609375 -11.265625 12.74609375 C-10.275625 12.41609375 -9.285625 12.08609375 -8.265625 11.74609375 C-8.265625 10.75609375 -8.265625 9.76609375 -8.265625 8.74609375 C-8.925625 8.41609375 -9.585625 8.08609375 -10.265625 7.74609375 C-9.03163437 6.37732259 -7.77781877 5.02640209 -6.515625 3.68359375 C-5.81953125 2.92949219 -5.1234375 2.17539063 -4.40625 1.3984375 C-2.265625 -0.25390625 -2.265625 -0.25390625 0 0 Z " fill="#A22F21" transform="translate(242.265625,205.25390625)"/>
<path d="M0 0 C0.33 0 0.66 0 1 0 C1.21688524 4.2351496 1.41377195 8.47060971 1.59204102 12.70751953 C1.65553381 14.14917937 1.7245198 15.59060805 1.79907227 17.03173828 C1.90519707 19.10152815 1.99163842 21.17134143 2.07421875 23.2421875 C2.16062622 25.11173096 2.16062622 25.11173096 2.2487793 27.01904297 C2.16668213 28.00275879 2.08458496 28.98647461 2 30 C1.01 30.66 0.02 31.32 -1 32 C-1.33 22.76 -1.66 13.52 -2 4 C-1.34 4 -0.68 4 0 4 C0 2.68 0 1.36 0 0 Z " fill="#234B8F" transform="translate(144,144)"/>
<path d="M0 0 C0.66 0.99 1.32 1.98 2 3 C0.6875 6.5 0.6875 6.5 -1 10 C-1.33 10.99 -1.66 11.98 -2 13 C-1.01 13.33 -0.02 13.66 1 14 C1.66 11.69 2.32 9.38 3 7 C3.66 7 4.32 7 5 7 C5.33 6.34 5.66 5.68 6 5 C5.42365861 9.75481646 3.44931479 12.97048212 1 17 C-0.98 17 -2.96 17 -5 17 C-6.36420006 12.90739982 -4.7664515 10.52987341 -3.0625 6.8125 C-2.77181641 6.15830078 -2.48113281 5.50410156 -2.18164062 4.83007812 C-1.46304657 3.21618656 -0.7326412 1.60756345 0 0 Z " fill="#23467D" transform="translate(230,161)"/>
<path d="M0 0 C7.59899376 0.46887408 15.11540973 1.55770487 22 5 C21.34 5.66 20.68 6.32 20 7 C14.33588083 6.71199394 10.16674297 5.43714291 5 3 C3.3357865 2.32723284 1.67013418 1.65793165 0 1 C0 0.67 0 0.34 0 0 Z " fill="#A6CF8D" transform="translate(218,50)"/>
<path d="M0 0 C2 1 2 1 3.125 3.3125 C4 6 4 6 4 10 C1.69 10.33 -0.62 10.66 -3 11 C-3.33 9.02 -3.66 7.04 -4 5 C-3.34 5 -2.68 5 -2 5 C-1.34 3.35 -0.68 1.7 0 0 Z " fill="#2E5499" transform="translate(245,135)"/>
<path d="M0 0 C0.66 0.33 1.32 0.66 2 1 C-1.66291938 3.47785723 -4.6109185 4.48964169 -9 5 C-6.525 5.99 -6.525 5.99 -4 7 C-6.40820361 9.40820361 -7.65022937 9.68097423 -11 10 C-13.64816751 8.98746536 -15.62266171 7.5848922 -18 6 C-16.86820313 5.65066406 -15.73640625 5.30132812 -14.5703125 4.94140625 C-13.08851369 4.48186105 -11.60674438 4.02222069 -10.125 3.5625 C-9.37863281 3.33240234 -8.63226563 3.10230469 -7.86328125 2.86523438 C-3.84908399 1.64620353 -3.84908399 1.64620353 0 0 Z " fill="#ADCC9A" transform="translate(244,274)"/>
<path d="M0 0 C0.66 0.33 1.32 0.66 2 1 C1.85866501 2.77119803 1.71176792 4.54195287 1.5625 6.3125 C1.48128906 7.29863281 1.40007813 8.28476563 1.31640625 9.30078125 C1 12 1 12 0 15 C-0.99 15.33 -1.98 15.66 -3 16 C-3.24954005 14.56589632 -3.47392642 13.12739928 -3.6875 11.6875 C-3.81511719 10.88699219 -3.94273438 10.08648437 -4.07421875 9.26171875 C-4 7 -4 7 -2.5625 5.34375 C-1.7890625 4.67859375 -1.7890625 4.67859375 -1 4 C-0.28552357 1.89667109 -0.28552357 1.89667109 0 0 Z " fill="#B4C7E7" transform="translate(38,144)"/>
<path d="M0 0 C0 0.66 0 1.32 0 2 C-1.32 2 -2.64 2 -4 2 C-4.33 2.66 -4.66 3.32 -5 4 C-5.93972656 3.98259766 -5.93972656 3.98259766 -6.8984375 3.96484375 C-8.12433594 3.95130859 -8.12433594 3.95130859 -9.375 3.9375 C-10.59316406 3.92009766 -10.59316406 3.92009766 -11.8359375 3.90234375 C-14.04937142 3.85533666 -14.04937142 3.85533666 -16 5 C-16.66 4.34 -17.32 3.68 -18 3 C-17.01 3 -16.02 3 -15 3 C-15 2.34 -15 1.68 -15 1 C-9.69276568 -0.42705634 -5.46108889 -1.4002792 0 0 Z " fill="#B4C8E6" transform="translate(163,26)"/>
<path d="M0 0 C0.66 0.66 1.32 1.32 2 2 C0.68 6.62 -0.64 11.24 -2 16 C-4.56616632 12.15075052 -4.55097676 9.5650696 -5 5 C-3.68 5 -2.36 5 -1 5 C-0.67 3.35 -0.34 1.7 0 0 Z " fill="#AFCE99" transform="translate(318,190)"/>
<path d="M0 0 C5.94 0.99 5.94 0.99 12 2 C11.67 3.65 11.34 5.3 11 7 C5.72684667 6.5547115 0.98229776 5.91626837 -4 4 C-3.67 3.34 -3.34 2.68 -3 2 C-2.0925 2.33 -1.185 2.66 -0.25 3 C3.07045807 4.19605723 3.07045807 4.19605723 7 4 C4.69 3.01 2.38 2.02 0 1 C0 0.67 0 0.34 0 0 Z " fill="#A5ADBA" transform="translate(159,251)"/>
<path d="M0 0 C1.17825358 0.90172468 2.34231577 1.82201502 3.5 2.75 C4.1496875 3.26046875 4.799375 3.7709375 5.46875 4.296875 C7 6 7 6 7 10 C4.6875 9.8125 4.6875 9.8125 2 9 C0.125 6.6875 0.125 6.6875 -1 4 C-0.5703125 1.83203125 -0.5703125 1.83203125 0 0 Z " fill="#AFC981" transform="translate(88,229)"/>
<path d="M0 0 C0.33 0 0.66 0 1 0 C1.125 7.75 1.125 7.75 0 10 C0.09723451 11.99021521 0.09723451 11.99021521 0.4375 14.125 C0.623125 15.40375 0.80875 16.6825 1 18 C0.34 18 -0.32 18 -1 18 C-2.48520725 15.02958551 -2.1705822 12.30235553 -2.1875 9 C-2.20167969 7.741875 -2.21585937 6.48375 -2.23046875 5.1875 C-2 2 -2 2 0 0 Z " fill="#A4CF8A" transform="translate(320,164)"/>
<path d="M0 0 C0 0.66 0 1.32 0 2 C-1.670625 1.7525 -1.670625 1.7525 -3.375 1.5 C-8.25510338 0.87905495 -13.08861948 0.90942126 -18 1 C-18.33 0.34 -18.66 -0.32 -19 -1 C-12.81786177 -2.01162262 -5.80489719 -2.90244859 0 0 Z " fill="#A5CF89" transform="translate(217,50)"/>
<path d="M0 0 C0.33 0.99 0.66 1.98 1 3 C0.67 3.66 0.34 4.32 0 5 C0.66 5 1.32 5 2 5 C2 4.34 2 3.68 2 3 C2.99 3.33 3.98 3.66 5 4 C3.02 6.31 1.04 8.62 -1 11 C-1.66 10.01 -2.32 9.02 -3 8 C-3.99 8.495 -3.99 8.495 -5 9 C-3.7508258 5.54074837 -2.32472205 2.85306797 0 0 Z " fill="#B0CD9D" transform="translate(292,237)"/>
<path d="M0 0 C1.875 0.25 1.875 0.25 4 1 C5.125 2.9375 5.125 2.9375 6 5 C6.66 5.66 7.32 6.32 8 7 C7.01 7.66 6.02 8.32 5 9 C3.02 7.68 1.04 6.36 -1 5 C-0.67 3.35 -0.34 1.7 0 0 Z " fill="#B2BBC9" transform="translate(129,237)"/>
<path d="M0 0 C0.33 0 0.66 0 1 0 C1.12375 0.969375 1.2475 1.93875 1.375 2.9375 C1.684375 4.4534375 1.684375 4.4534375 2 6 C2.66 6.33 3.32 6.66 4 7 C4.66 4.69 5.32 2.38 6 0 C6.66 0 7.32 0 8 0 C6.125 6.875 6.125 6.875 5 8 C2.66702567 8.04092937 0.33294775 8.04241723 -2 8 C-1.125 2.25 -1.125 2.25 0 0 Z " fill="#29477E" transform="translate(98,170)"/>
<path d="M0 0 C2.62386487 3.06117568 3 3.73173127 3 8 C0.69 8 -1.62 8 -4 8 C-4.99 6.02 -5.98 4.04 -7 2 C-6.01 2 -5.02 2 -4 2 C-3.71125 2.639375 -3.4225 3.27875 -3.125 3.9375 C-2.17176549 6.15206079 -2.17176549 6.15206079 0 7 C0 4.69 0 2.38 0 0 Z " fill="#24487C" transform="translate(135,170)"/>
<path d="M0 0 C0 0.66 0 1.32 0 2 C-1.32 2.33 -2.64 2.66 -4 3 C-3.34 3.66 -2.68 4.32 -2 5 C-3 6 -3 6 -6.0625 6.0625 C-7.5165625 6.0315625 -7.5165625 6.0315625 -9 6 C-9 4.35 -9 2.7 -9 1 C-5.846632 0.29925156 -3.27275026 0 0 0 Z " fill="#A13122" transform="translate(202,227)"/>
<path d="M0 0 C3.61569905 2.63848309 6.02835214 4.95293333 8 9 C8 9.99 8 10.98 8 12 C4.74905801 10.95505436 3.43126714 9.40864509 1.75 6.5625 C0 3 0 3 0 0 Z " fill="#A0C26C" transform="translate(80,219)"/>
<path d="M0 0 C-0.33 0.99 -0.66 1.98 -1 3 C-0.01 3.66 0.98 4.32 2 5 C0.34385343 5.38218767 -1.32457024 5.71395102 -3 6 C-3.33 5.67 -3.66 5.34 -4 5 C-5.51469448 4.76807135 -7.03754562 4.58784762 -8.5625 4.4375 C-9.38878906 4.35371094 -10.21507812 4.26992187 -11.06640625 4.18359375 C-11.70449219 4.12300781 -12.34257812 4.06242188 -13 4 C-13 3.67 -13 3.34 -13 3 C-12.37351563 2.86722656 -11.74703125 2.73445312 -11.1015625 2.59765625 C-10.28429687 2.42105469 -9.46703125 2.24445313 -8.625 2.0625 C-7.81289062 1.88847656 -7.00078125 1.71445313 -6.1640625 1.53515625 C-3.88723554 0.9721142 -2.3530537 0 0 0 Z " fill="#9B2C1C" transform="translate(216,223)"/>
<path d="M0 0 C0.33 0.66 0.66 1.32 1 2 C3.62616876 3.17486497 6.27044585 4.09014862 9 5 C9.33 5.99 9.66 6.98 10 8 C4.62312634 7.65310493 4.62312634 7.65310493 2 7 C-0.01788836 4.47763955 0 3.24903049 0 0 Z " fill="#A7D08E" transform="translate(254,59)"/>
<path d="M0 0 C0.78246094 -0.02578125 1.56492188 -0.0515625 2.37109375 -0.078125 C4.5625 0.25 4.5625 0.25 7.5625 3.25 C3.6025 2.92 -0.3575 2.59 -4.4375 2.25 C-4.7675 3.24 -5.0975 4.23 -5.4375 5.25 C-5.7675 3.93 -6.0975 2.61 -6.4375 1.25 C-4.11063547 0.08656773 -2.59028587 0.05104012 0 0 Z " fill="#27447C" transform="translate(154.4375,136.75)"/>
<path d="M0 0 C0 3 0 3 -2.5 5.6875 C-3.325 6.450625 -4.15 7.21375 -5 8 C-5.66 7.67 -6.32 7.34 -7 7 C-7 5.35 -7 3.7 -7 2 C-6.01 2 -5.02 2 -4 2 C-1.84971696 1.05021103 -1.84971696 1.05021103 0 0 Z " fill="#A7B0BE" transform="translate(261,220)"/>
<path d="M0 0 C0.66 0.99 1.32 1.98 2 3 C4.88595946 3.58481121 4.88595946 3.58481121 8.125 3.6875 C9.22070312 3.75324219 10.31640625 3.81898438 11.4453125 3.88671875 C12.28835937 3.92410156 13.13140625 3.96148437 14 4 C10.5233662 6.14336161 7.78770805 6.21277626 3.75 6.125 C2.67234375 6.10695312 1.5946875 6.08890625 0.484375 6.0703125 C-0.33546875 6.04710937 -1.1553125 6.02390625 -2 6 C-2.33 5.01 -2.66 4.02 -3 3 C-2.01 2.01 -1.02 1.02 0 0 Z " fill="#244D8F" transform="translate(238,157)"/>
<path d="M0 0 C1.9375 0.625 1.9375 0.625 4 2 C4.75 5.125 4.75 5.125 5 8 C2.00675737 6.9024777 1.15389099 6.32317108 -0.25 3.375 C-0.4975 2.59125 -0.745 1.8075 -1 1 C-0.67 0.67 -0.34 0.34 0 0 Z " fill="#B7C7E7" transform="translate(77,268)"/>
<path d="M0 0 C2.41466913 1.20733457 4.69115369 2.60254039 7 4 C6.34 4.66 5.68 5.32 5 6 C2.5 5.875 2.5 5.875 0 5 C-1.3125 2.9375 -1.3125 2.9375 -2 1 C-1.34 0.67 -0.68 0.34 0 0 Z " fill="#ADB4C7" transform="translate(142,245)"/>
<path d="M0 0 C3.3 0 6.6 0 10 0 C10.33 0.66 10.66 1.32 11 2 C7.37 2.33 3.74 2.66 0 3 C0 2.01 0 1.02 0 0 Z " fill="#BA2D1D" transform="translate(202,227)"/>
<path d="M0 0 C0.99 0 1.98 0 3 0 C4 3 4 3 3.0625 5.1875 C2.5365625 6.0846875 2.5365625 6.0846875 2 7 C1.01 6.67 0.02 6.34 -1 6 C-0.67 4.02 -0.34 2.04 0 0 Z " fill="#B7C6E9" transform="translate(39,201)"/>
<path d="M0 0 C1.0625 1.875 1.0625 1.875 2 4 C1.67 4.66 1.34 5.32 1 6 C-0.32 6 -1.64 6 -3 6 C-3.66 6.66 -4.32 7.32 -5 8 C-5 5 -5 5 -2.5 2.3125 C-1.675 1.549375 -0.85 0.78625 0 0 Z " fill="#A5D08E" transform="translate(289,244)"/>
<path d="M0 0 C0.66 0 1.32 0 2 0 C0.68938409 4.23429756 -0.94356259 8.07407404 -3 12 C-4.39746302 7.80761095 -2.84031875 5.89298197 -1 2 C-0.67 1.34 -0.34 0.68 0 0 Z " fill="#27457D" transform="translate(243,147)"/>
<path d="M0 0 C2.31 0.33 4.62 0.66 7 1 C7.33 1.99 7.66 2.98 8 4 C5.36 3.67 2.72 3.34 0 3 C0 2.01 0 1.02 0 0 Z " fill="#FAE599" transform="translate(208,77)"/>
<path d="M0 0 C2.97 0.99 5.94 1.98 9 3 C8.67 3.66 8.34 4.32 8 5 C5.23723823 4.47731534 2.6739124 3.89130413 0 3 C0 2.01 0 1.02 0 0 Z " fill="#9A4C31" transform="translate(237,74)"/>
<path d="M0 0 C1.29608947 0.93137592 2.58671632 1.8703566 3.875 2.8125 C4.59429687 3.33457031 5.31359375 3.85664063 6.0546875 4.39453125 C8 6 8 6 10 9 C5.58968355 8.49111733 3.10672401 5.96550928 0 3 C0 2.01 0 1.02 0 0 Z " fill="#9DADBC" transform="translate(120,228)"/>
<path d="M0 0 C0.99 0.33 1.98 0.66 3 1 C0.45368965 3.97069541 -2.42230149 5.4775751 -6 7 C-6.66 6.67 -7.32 6.34 -8 6 C-5.38485683 3.87961365 -2.80362384 1.86908256 0 0 Z " fill="#A42B1C" transform="translate(226,220)"/>
<path d="M0 0 C1.73662334 3.22515763 2.8905928 6.51329166 4 10 C3.01 10 2.02 10 1 10 C-0.625 7.25 -0.625 7.25 -2 4 C-1.1875 1.625 -1.1875 1.625 0 0 Z " fill="#B7C7EA" transform="translate(43,211)"/>
<path d="M0 0 C1.32 0.33 2.64 0.66 4 1 C4 1.66 4 2.32 4 3 C4.66 3.33 5.32 3.66 6 4 C4.35 4.66 2.7 5.32 1 6 C0 5 0 5 -0.0625 2.4375 C-0.041875 1.633125 -0.02125 0.82875 0 0 Z " fill="#ADC995" transform="translate(182,49)"/>
<path d="M0 0 C0.99 0.66 1.98 1.32 3 2 C-2.625 6 -2.625 6 -6 6 C-6 5.34 -6 4.68 -6 4 C-4.03852126 2.61061923 -2.03833424 1.2739589 0 0 Z " fill="#A4ACB8" transform="translate(233,243)"/>
<path d="M0 0 C0.66 0.33 1.32 0.66 2 1 C2 1.66 2 2.32 2 3 C3.65 3 5.3 3 7 3 C6.67 4.32 6.34 5.64 6 7 C3 5.1875 3 5.1875 0 3 C0 2.01 0 1.02 0 0 Z " fill="#A9B1C0" transform="translate(122,234)"/>
<path d="M0 0 C-4.30769231 3.93846154 -4.30769231 3.93846154 -7.8125 4.25 C-8.534375 4.1675 -9.25625 4.085 -10 4 C-8.34655494 1.30227385 -7.50773114 0.16098792 -4.4375 -0.8125 C-2 -1 -2 -1 0 0 Z " fill="#BC2C1A" transform="translate(223,223)"/>
<path d="M0 0 C0.33 0 0.66 0 1 0 C1 2.97 1 5.94 1 9 C-0.32 8.34 -1.64 7.68 -3 7 C-1.125 1.125 -1.125 1.125 0 0 Z " fill="#A3D08C" transform="translate(315,128)"/>
<path d="M0 0 C1.4540625 0.0309375 1.4540625 0.0309375 2.9375 0.0625 C2.9375 0.7225 2.9375 1.3825 2.9375 2.0625 C-1.5175 3.5475 -1.5175 3.5475 -6.0625 5.0625 C-3.56765464 0.07280928 -3.56765464 0.07280928 0 0 Z " fill="#B2C6E6" transform="translate(170.0625,22.9375)"/>
<path d="M0 0 C0.66 0.66 1.32 1.32 2 2 C-0.8125 2.6875 -0.8125 2.6875 -4 3 C-5.875 1.5625 -5.875 1.5625 -7 0 C-4.29393021 -1.35303489 -2.8671629 -0.7884698 0 0 Z " fill="#F7E895" transform="translate(203,75)"/>
<path d="M0 0 C0.66 0.33 1.32 0.66 2 1 C2 1.66 2 2.32 2 3 C1.071875 3.4021875 1.071875 3.4021875 0.125 3.8125 C-2.2995233 4.95556848 -2.2995233 4.95556848 -4 8 C-4.66 8 -5.32 8 -6 8 C-4.55746343 4.63408134 -2.66735273 2.48952921 0 0 Z " fill="#B6C8E5" transform="translate(80,65)"/>
<path d="M0 0 C0.66 0.33 1.32 0.66 2 1 C-0.97 4.96 -0.97 4.96 -4 9 C-4.33 7.68 -4.66 6.36 -5 5 C-4.01 4.67 -3.02 4.34 -2 4 C-0.79117904 1.99983534 -0.79117904 1.99983534 0 0 Z " fill="#B2C0D5" transform="translate(69,80)"/>
<path d="M0 0 C0.66 0.33 1.32 0.66 2 1 C2.1875 3.8125 2.1875 3.8125 2 7 C1.01 7.99 0.02 8.98 -1 10 C-0.67 6.7 -0.34 3.4 0 0 Z " fill="#B0C1DB" transform="translate(36,141)"/>
<path d="M0 0 C0.66 0 1.32 0 2 0 C2.33 1.98 2.66 3.96 3 6 C1.68 6.33 0.36 6.66 -1 7 C-0.67 4.69 -0.34 2.38 0 0 Z " fill="#A8C592" transform="translate(276,254)"/>
<path d="M0 0 C1.98 0 3.96 0 6 0 C6.33 0.66 6.66 1.32 7 2 C6.01 2.99 5.02 3.98 4 5 C2.68 3.35 1.36 1.7 0 0 Z " fill="#AC2615" transform="translate(196,229)"/>
<path d="M0 0 C0.33 0.66 0.66 1.32 1 2 C-0.65 4.31 -2.3 6.62 -4 9 C-4.33 8.34 -4.66 7.68 -5 7 C-1.125 1.125 -1.125 1.125 0 0 Z " fill="#A2AEBA" transform="translate(267,211)"/>
<path d="M0 0 C2.0625 0.4375 2.0625 0.4375 4 1 C-0.75 5 -0.75 5 -3 5 C-1.125 1.125 -1.125 1.125 0 0 Z " fill="#B0BFDC" transform="translate(99,51)"/>
<path d="M0 0 C1.485 0.99 1.485 0.99 3 2 C2.67 2.66 2.34 3.32 2 4 C1.34 2.68 0.68 1.36 0 0 Z " fill="#471C0E" transform="translate(264,88)"/>
<path d="M0 0 C2 1 2 1 2 1 Z " fill="#DFDFDF" transform="translate(98,89)"/>
<path d="M0 0 C2 1 2 1 2 1 Z " fill="#400000" transform="translate(257,83)"/>
</svg>
